<svg width="16" height="16" viewBox="0 0 16 16" fill="none" xmlns="http://www.w3.org/2000/svg">
<path d="M13.8284 7.82843L13.1213 7.12132H13.1213L13.8284 7.82843ZM8.17157 2.17157L7.46446 1.46447L7.46446 1.46447L8.17157 2.17157ZM7.82843 13.8284L8.53553 14.5355H8.53553L7.82843 13.8284ZM2.17157 8.17157L2.87868 8.87868H2.87868L2.17157 8.17157ZM6.21446 2.71447C5.82394 3.10499 5.82394 3.73816 6.21447 4.12868C6.60499 4.5192 7.23815 4.5192 7.62868 4.12868L6.21446 2.71447ZM4.12868 7.62868C4.5192 7.23815 4.5192 6.60499 4.12868 6.21447C3.73815 5.82394 3.10499 5.82394 2.71447 6.21447L4.12868 7.62868ZM11.8713 8.37132C11.4808 8.76185 11.4808 9.39501 11.8713 9.78553C12.2618 10.1761 12.895 10.1761 13.2855 9.78553L11.8713 8.37132ZM9.78553 13.2855C10.1761 12.895 10.1761 12.2618 9.78553 11.8713C9.39501 11.4808 8.76184 11.4808 8.37132 11.8713L9.78553 13.2855ZM13.1213 2.87868C14.2929 4.05025 14.2929 5.94975 13.1213 7.12132L14.5355 8.53553C16.4882 6.58291 16.4882 3.41709 14.5355 1.46447L13.1213 2.87868ZM8.87868 2.87868C10.0503 1.70711 11.9497 1.70711 13.1213 2.87868L14.5355 1.46447C12.5829 -0.488155 9.41709 -0.488155 7.46446 1.46447L8.87868 2.87868ZM7.12132 13.1213C5.94975 14.2929 4.05025 14.2929 2.87868 13.1213L1.46447 14.5355C3.41709 16.4882 6.58291 16.4882 8.53553 14.5355L7.12132 13.1213ZM1.46447 7.46447C-0.488155 9.41709 -0.488155 12.5829 1.46447 14.5355L2.87868 13.1213C1.70711 11.9497 1.70711 10.0503 2.87868 8.87868L1.46447 7.46447ZM7.62868 4.12868L8.87868 2.87868L7.46446 1.46447L6.21446 2.71447L7.62868 4.12868ZM2.87868 8.87868L4.12868 7.62868L2.71447 6.21447L1.46447 7.46447L2.87868 8.87868ZM13.1213 7.12132L11.8713 8.37132L13.2855 9.78553L14.5355 8.53553L13.1213 7.12132ZM8.37132 11.8713L7.12132 13.1213L8.53553 14.5355L9.78553 13.2855L8.37132 11.8713Z" fill="#AAB2BB"/>
<path d="M10.5 5.5L5.5 10.5" stroke="#AAB2BB" stroke-width="2" stroke-linecap="round" stroke-linejoin="round"/>
</svg>
