<svg width="64" height="60" viewBox="0 0 64 60" fill="none" xmlns="http://www.w3.org/2000/svg">
<rect x="24.7071" y="35" width="11" height="11" rx="1.5" transform="rotate(-45 24.7071 35)" fill="#2D3A41" stroke="#E8ECF0"/>
<g filter="url(#filter0_dd)">
<rect x="12" y="2" width="40" height="36" rx="4" fill="#2D3A41"/>
</g>
<rect x="24" y="35" width="12" height="12" rx="2" transform="rotate(-45 24 35)" fill="#2D3A41"/>
<path d="M37.8284 19.8284L37.1213 19.1213H37.1213L37.8284 19.8284ZM32.1716 14.1716L31.4645 13.4645L31.4645 13.4645L32.1716 14.1716ZM31.8284 25.8284L32.5355 26.5355H32.5355L31.8284 25.8284ZM26.1716 20.1716L26.8787 20.8787H26.8787L26.1716 20.1716ZM30.2145 14.7145C29.8239 15.105 29.8239 15.7382 30.2145 16.1287C30.605 16.5192 31.2382 16.5192 31.6287 16.1287L30.2145 14.7145ZM28.1287 19.6287C28.5192 19.2382 28.5192 18.605 28.1287 18.2145C27.7382 17.8239 27.105 17.8239 26.7145 18.2145L28.1287 19.6287ZM35.8713 20.3713C35.4808 20.7618 35.4808 21.395 35.8713 21.7855C36.2618 22.1761 36.895 22.1761 37.2855 21.7855L35.8713 20.3713ZM33.7855 25.2855C34.1761 24.895 34.1761 24.2618 33.7855 23.8713C33.395 23.4808 32.7618 23.4808 32.3713 23.8713L33.7855 25.2855ZM37.1213 14.8787C38.2929 16.0503 38.2929 17.9497 37.1213 19.1213L38.5355 20.5355C40.4882 18.5829 40.4882 15.4171 38.5355 13.4645L37.1213 14.8787ZM32.8787 14.8787C34.0503 13.7071 35.9497 13.7071 37.1213 14.8787L38.5355 13.4645C36.5829 11.5118 33.4171 11.5118 31.4645 13.4645L32.8787 14.8787ZM31.1213 25.1213C29.9497 26.2929 28.0503 26.2929 26.8787 25.1213L25.4645 26.5355C27.4171 28.4882 30.5829 28.4882 32.5355 26.5355L31.1213 25.1213ZM25.4645 19.4645C23.5118 21.4171 23.5118 24.5829 25.4645 26.5355L26.8787 25.1213C25.7071 23.9497 25.7071 22.0503 26.8787 20.8787L25.4645 19.4645ZM31.6287 16.1287L32.8787 14.8787L31.4645 13.4645L30.2145 14.7145L31.6287 16.1287ZM26.8787 20.8787L28.1287 19.6287L26.7145 18.2145L25.4645 19.4645L26.8787 20.8787ZM37.1213 19.1213L35.8713 20.3713L37.2855 21.7855L38.5355 20.5355L37.1213 19.1213ZM32.3713 23.8713L31.1213 25.1213L32.5355 26.5355L33.7855 25.2855L32.3713 23.8713Z" fill="#AAB2BB"/>
<path d="M34.5 17.5L29.5 22.5" stroke="#AAB2BB" stroke-width="2" stroke-linecap="round" stroke-linejoin="round"/>
<defs>
<filter id="filter0_dd" x="0" y="0" width="64" height="60" filterUnits="userSpaceOnUse" color-interpolation-filters="sRGB">
<feFlood flood-opacity="0" result="BackgroundImageFix"/>
<feColorMatrix in="SourceAlpha" type="matrix" values="0 0 0 0 0 0 0 0 0 0 0 0 0 0 0 0 0 0 127 0"/>
<feOffset/>
<feGaussianBlur stdDeviation="1"/>
<feColorMatrix type="matrix" values="0 0 0 0 0.662745 0 0 0 0 0.701961 0 0 0 0 0.733333 0 0 0 0.5 0"/>
<feBlend mode="normal" in2="BackgroundImageFix" result="effect1_dropShadow"/>
<feColorMatrix in="SourceAlpha" type="matrix" values="0 0 0 0 0 0 0 0 0 0 0 0 0 0 0 0 0 0 127 0"/>
<feOffset dy="10"/>
<feGaussianBlur stdDeviation="6"/>
<feColorMatrix type="matrix" values="0 0 0 0 0 0 0 0 0 0 0 0 0 0 0 0 0 0 0.12 0"/>
<feBlend mode="normal" in2="effect1_dropShadow" result="effect2_dropShadow"/>
<feBlend mode="normal" in="SourceGraphic" in2="effect2_dropShadow" result="shape"/>
</filter>
</defs>
</svg>
