<svg width="281" height="60" viewBox="0 0 281 60" fill="none" xmlns="http://www.w3.org/2000/svg">
<rect x="132" y="35" width="12" height="12" rx="2" transform="rotate(-45 132 35)" fill="#2D3A41"/>
<g filter="url(#filter0_dd)">
<rect x="12" y="2" width="257" height="36" rx="4" fill="#2D3A41"/>
</g>
<rect x="132" y="35" width="12" height="12" rx="2" transform="rotate(-45 132 35)" fill="#2D3A41"/>
<path opacity="0.5" d="M27.934 15.354C29.1287 15.354 30.0527 15.606 30.706 16.11C31.3593 16.6047 31.686 17.3467 31.686 18.336C31.686 19.3907 31.3453 20.1747 30.664 20.688C29.9827 21.2013 29.0773 21.458 27.948 21.458H26.73V25H25.4V15.354H27.934ZM27.892 20.408C28.6667 20.408 29.2547 20.2587 29.656 19.96C30.0667 19.6613 30.272 19.1247 30.272 18.35C30.272 17.6593 30.0667 17.16 29.656 16.852C29.2547 16.544 28.676 16.39 27.92 16.39H26.73V20.408H27.892ZM37.6691 23.278C37.6691 23.5767 37.7205 23.8007 37.8231 23.95C37.9258 24.09 38.0798 24.1973 38.2851 24.272L37.9911 25.168C37.6085 25.1213 37.3005 25.014 37.0671 24.846C36.8338 24.678 36.6611 24.4167 36.5491 24.062C36.0545 24.7993 35.3218 25.168 34.3511 25.168C33.6231 25.168 33.0491 24.9627 32.6291 24.552C32.2091 24.1413 31.9991 23.6047 31.9991 22.942C31.9991 22.158 32.2791 21.556 32.8391 21.136C33.4085 20.716 34.2111 20.506 35.2471 20.506H36.3811V19.96C36.3811 19.4373 36.2551 19.064 36.0031 18.84C35.7511 18.616 35.3638 18.504 34.8411 18.504C34.2998 18.504 33.6371 18.6347 32.8531 18.896L32.5311 17.958C33.4458 17.622 34.2951 17.454 35.0791 17.454C35.9471 17.454 36.5958 17.6687 37.0251 18.098C37.4545 18.518 37.6691 19.12 37.6691 19.904V23.278ZM34.6451 24.202C35.3825 24.202 35.9611 23.8193 36.3811 23.054V21.36H35.4151C34.0525 21.36 33.3711 21.864 33.3711 22.872C33.3711 23.3107 33.4785 23.642 33.6931 23.866C33.9078 24.09 34.2251 24.202 34.6451 24.202ZM42.1797 17.454C42.6837 17.454 43.1363 17.524 43.5377 17.664C43.939 17.804 44.3217 18.014 44.6857 18.294L44.1397 19.106C43.8037 18.8913 43.4817 18.7327 43.1737 18.63C42.875 18.5273 42.5577 18.476 42.2217 18.476C41.8017 18.476 41.4703 18.5647 41.2277 18.742C40.985 18.91 40.8637 19.1433 40.8637 19.442C40.8637 19.7407 40.9757 19.974 41.1997 20.142C41.433 20.31 41.8483 20.4733 42.4457 20.632C43.267 20.8373 43.8783 21.1173 44.2797 21.472C44.6903 21.8267 44.8957 22.312 44.8957 22.928C44.8957 23.656 44.611 24.2113 44.0417 24.594C43.4817 24.9767 42.7957 25.168 41.9837 25.168C40.8637 25.168 39.935 24.846 39.1977 24.202L39.8837 23.418C40.509 23.894 41.1997 24.132 41.9557 24.132C42.441 24.132 42.8237 24.034 43.1037 23.838C43.393 23.6327 43.5377 23.3573 43.5377 23.012C43.5377 22.76 43.4863 22.5593 43.3837 22.41C43.281 22.2513 43.1037 22.116 42.8517 22.004C42.5997 21.8827 42.231 21.7567 41.7457 21.626C40.9617 21.4207 40.3923 21.1453 40.0377 20.8C39.6923 20.4547 39.5197 20.016 39.5197 19.484C39.5197 19.1013 39.6317 18.756 39.8557 18.448C40.089 18.1307 40.4063 17.888 40.8077 17.72C41.2183 17.5427 41.6757 17.454 42.1797 17.454ZM50.4368 24.664C49.9515 25 49.4008 25.168 48.7848 25.168C48.1595 25.168 47.6695 24.9907 47.3148 24.636C46.9695 24.272 46.7968 23.7493 46.7968 23.068V18.616H45.5088V17.622H46.7968V15.956L48.0848 15.802V17.622H49.8348L49.6948 18.616H48.0848V23.012C48.0848 23.3947 48.1501 23.6747 48.2808 23.852C48.4208 24.02 48.6495 24.104 48.9668 24.104C49.2561 24.104 49.5828 24.006 49.9468 23.81L50.4368 24.664ZM57.1383 21.094C57.1383 21.3087 57.129 21.528 57.1103 21.752H52.4063C52.4623 22.564 52.6677 23.1613 53.0223 23.544C53.377 23.9267 53.8343 24.118 54.3943 24.118C54.749 24.118 55.0757 24.0667 55.3743 23.964C55.673 23.8613 55.9857 23.698 56.3123 23.474L56.8723 24.244C56.0883 24.86 55.2297 25.168 54.2963 25.168C53.2697 25.168 52.467 24.832 51.8883 24.16C51.319 23.488 51.0343 22.564 51.0343 21.388C51.0343 20.6227 51.1557 19.946 51.3983 19.358C51.6503 18.7607 52.005 18.294 52.4623 17.958C52.929 17.622 53.475 17.454 54.1003 17.454C55.0803 17.454 55.8317 17.776 56.3543 18.42C56.877 19.064 57.1383 19.9553 57.1383 21.094ZM55.8643 20.716C55.8643 19.988 55.7197 19.4327 55.4303 19.05C55.141 18.6673 54.707 18.476 54.1283 18.476C53.0737 18.476 52.4997 19.2507 52.4063 20.8H55.8643V20.716ZM65.6723 17.454C66.7083 17.454 67.511 17.7993 68.0803 18.49C68.659 19.1807 68.9483 20.1187 68.9483 21.304C68.9483 22.0693 68.8176 22.746 68.5563 23.334C68.295 23.9127 67.917 24.3653 67.4223 24.692C66.9276 25.0093 66.3396 25.168 65.6583 25.168C64.6223 25.168 63.815 24.8227 63.2363 24.132C62.6576 23.4413 62.3683 22.5033 62.3683 21.318C62.3683 20.5527 62.499 19.8807 62.7603 19.302C63.0216 18.714 63.3996 18.2613 63.8943 17.944C64.389 17.6173 64.9816 17.454 65.6723 17.454ZM65.6723 18.49C64.3936 18.49 63.7543 19.4327 63.7543 21.318C63.7543 23.194 64.389 24.132 65.6583 24.132C66.9276 24.132 67.5623 23.1893 67.5623 21.304C67.5623 19.428 66.9323 18.49 65.6723 18.49ZM74.2821 17.454C74.5434 17.454 74.7861 17.482 75.0101 17.538L74.7721 18.798C74.5481 18.742 74.3334 18.714 74.1281 18.714C73.6708 18.714 73.3021 18.882 73.0221 19.218C72.7421 19.554 72.5228 20.0767 72.3641 20.786V25H71.0761V17.622H72.1821L72.3081 19.12C72.5041 18.5693 72.7701 18.154 73.1061 17.874C73.4421 17.594 73.8341 17.454 74.2821 17.454ZM83.9056 24.664C83.4202 25 82.8696 25.168 82.2536 25.168C81.6282 25.168 81.1382 24.9907 80.7836 24.636C80.4382 24.272 80.2656 23.7493 80.2656 23.068V18.616H78.9776V17.622H80.2656V15.956L81.5536 15.802V17.622H83.3036L83.1636 18.616H81.5536V23.012C81.5536 23.3947 81.6189 23.6747 81.7496 23.852C81.8896 24.02 82.1182 24.104 82.4356 24.104C82.7249 24.104 83.0516 24.006 83.4156 23.81L83.9056 24.664ZM88.1258 25.042C87.8365 25.9007 87.4305 26.5773 86.9078 27.072C86.3945 27.576 85.6571 27.8793 84.6958 27.982L84.5558 26.974C85.0411 26.89 85.4285 26.7687 85.7178 26.61C86.0071 26.4513 86.2358 26.246 86.4038 25.994C86.5811 25.7513 86.7445 25.42 86.8938 25H86.4598L83.9818 17.622H85.3538L87.3278 24.062L89.2598 17.622H90.5898L88.1258 25.042ZM95.4504 17.454C96.3931 17.454 97.0838 17.79 97.5224 18.462C97.9611 19.134 98.1804 20.0813 98.1804 21.304C98.1804 22.4613 97.9284 23.3947 97.4244 24.104C96.9204 24.8133 96.2064 25.168 95.2824 25.168C94.4611 25.168 93.8171 24.888 93.3504 24.328V27.828L92.0624 27.982V17.622H93.1684L93.2664 18.616C93.5371 18.2427 93.8638 17.958 94.2464 17.762C94.6291 17.5567 95.0304 17.454 95.4504 17.454ZM94.9744 24.118C96.1878 24.118 96.7944 23.18 96.7944 21.304C96.7944 19.4187 96.2391 18.476 95.1284 18.476C94.7644 18.476 94.4331 18.5833 94.1344 18.798C93.8358 19.0127 93.5744 19.288 93.3504 19.624V23.222C93.5371 23.5113 93.7704 23.7353 94.0504 23.894C94.3304 24.0433 94.6384 24.118 94.9744 24.118ZM105.947 21.094C105.947 21.3087 105.938 21.528 105.919 21.752H101.215C101.271 22.564 101.476 23.1613 101.831 23.544C102.186 23.9267 102.643 24.118 103.203 24.118C103.558 24.118 103.884 24.0667 104.183 23.964C104.482 23.8613 104.794 23.698 105.121 23.474L105.681 24.244C104.897 24.86 104.038 25.168 103.105 25.168C102.078 25.168 101.276 24.832 100.697 24.16C100.128 23.488 99.8429 22.564 99.8429 21.388C99.8429 20.6227 99.9643 19.946 100.207 19.358C100.459 18.7607 100.814 18.294 101.271 17.958C101.738 17.622 102.284 17.454 102.909 17.454C103.889 17.454 104.64 17.776 105.163 18.42C105.686 19.064 105.947 19.9553 105.947 21.094ZM104.673 20.716C104.673 19.988 104.528 19.4327 104.239 19.05C103.95 18.6673 103.516 18.476 102.937 18.476C101.882 18.476 101.308 19.2507 101.215 20.8H104.673V20.716ZM116.679 23.278C116.679 23.5767 116.73 23.8007 116.833 23.95C116.936 24.09 117.09 24.1973 117.295 24.272L117.001 25.168C116.618 25.1213 116.31 25.014 116.077 24.846C115.844 24.678 115.671 24.4167 115.559 24.062C115.064 24.7993 114.332 25.168 113.361 25.168C112.633 25.168 112.059 24.9627 111.639 24.552C111.219 24.1413 111.009 23.6047 111.009 22.942C111.009 22.158 111.289 21.556 111.849 21.136C112.418 20.716 113.221 20.506 114.257 20.506H115.391V19.96C115.391 19.4373 115.265 19.064 115.013 18.84C114.761 18.616 114.374 18.504 113.851 18.504C113.31 18.504 112.647 18.6347 111.863 18.896L111.541 17.958C112.456 17.622 113.305 17.454 114.089 17.454C114.957 17.454 115.606 17.6687 116.035 18.098C116.464 18.518 116.679 19.12 116.679 19.904V23.278ZM113.655 24.202C114.392 24.202 114.971 23.8193 115.391 23.054V21.36H114.425C113.062 21.36 112.381 21.864 112.381 22.872C112.381 23.3107 112.488 23.642 112.703 23.866C112.918 24.09 113.235 24.202 113.655 24.202ZM124.499 25.168C124.023 25.168 123.645 25.028 123.365 24.748C123.095 24.4587 122.959 24.0573 122.959 23.544V14.654L124.247 14.5V23.516C124.247 23.7213 124.28 23.8707 124.345 23.964C124.42 24.0573 124.541 24.104 124.709 24.104C124.887 24.104 125.045 24.076 125.185 24.02L125.521 24.916C125.213 25.084 124.873 25.168 124.499 25.168ZM128.419 17.622V25H127.131V17.622H128.419ZM127.761 14.08C128.031 14.08 128.251 14.164 128.419 14.332C128.587 14.5 128.671 14.71 128.671 14.962C128.671 15.214 128.587 15.424 128.419 15.592C128.251 15.7507 128.031 15.83 127.761 15.83C127.499 15.83 127.285 15.7507 127.117 15.592C126.949 15.424 126.865 15.214 126.865 14.962C126.865 14.71 126.949 14.5 127.117 14.332C127.285 14.164 127.499 14.08 127.761 14.08ZM134.554 17.454C135.226 17.454 135.749 17.6547 136.122 18.056C136.505 18.4573 136.696 19.008 136.696 19.708V25H135.408V19.89C135.408 19.3673 135.31 18.9987 135.114 18.784C134.918 18.5693 134.629 18.462 134.246 18.462C133.854 18.462 133.509 18.574 133.21 18.798C132.911 19.022 132.631 19.344 132.37 19.764V25H131.082V17.622H132.188L132.3 18.714C132.561 18.322 132.883 18.014 133.266 17.79C133.658 17.566 134.087 17.454 134.554 17.454ZM140.573 14.5V25H139.285V14.654L140.573 14.5ZM144.815 17.622L142.099 20.884L145.123 25H143.583L140.657 20.968L143.373 17.622H144.815ZM146.84 23.222C147.12 23.222 147.353 23.3153 147.54 23.502C147.726 23.6887 147.82 23.9173 147.82 24.188C147.82 24.4587 147.726 24.692 147.54 24.888C147.353 25.0747 147.12 25.168 146.84 25.168C146.569 25.168 146.34 25.0747 146.154 24.888C145.967 24.692 145.874 24.4587 145.874 24.188C145.874 23.9173 145.967 23.6887 146.154 23.502C146.34 23.3153 146.569 23.222 146.84 23.222ZM150.203 23.222C150.483 23.222 150.716 23.3153 150.903 23.502C151.09 23.6887 151.183 23.9173 151.183 24.188C151.183 24.4587 151.09 24.692 150.903 24.888C150.716 25.0747 150.483 25.168 150.203 25.168C149.932 25.168 149.704 25.0747 149.517 24.888C149.33 24.692 149.237 24.4587 149.237 24.188C149.237 23.9173 149.33 23.6887 149.517 23.502C149.704 23.3153 149.932 23.222 150.203 23.222ZM153.566 23.222C153.846 23.222 154.08 23.3153 154.266 23.502C154.453 23.6887 154.546 23.9173 154.546 24.188C154.546 24.4587 154.453 24.692 154.266 24.888C154.08 25.0747 153.846 25.168 153.566 25.168C153.296 25.168 153.067 25.0747 152.88 24.888C152.694 24.692 152.6 24.4587 152.6 24.188C152.6 23.9173 152.694 23.6887 152.88 23.502C153.067 23.3153 153.296 23.222 153.566 23.222Z" fill="white"/>
<path d="M257 14L245 26M245 14L257 26" stroke="#AAB2BB" stroke-width="2" stroke-miterlimit="10" stroke-linejoin="round"/>
<defs>
<filter id="filter0_dd" x="0" y="0" width="281" height="60" filterUnits="userSpaceOnUse" color-interpolation-filters="sRGB">
<feFlood flood-opacity="0" result="BackgroundImageFix"/>
<feColorMatrix in="SourceAlpha" type="matrix" values="0 0 0 0 0 0 0 0 0 0 0 0 0 0 0 0 0 0 127 0"/>
<feOffset/>
<feGaussianBlur stdDeviation="1"/>
<feColorMatrix type="matrix" values="0 0 0 0 0.662745 0 0 0 0 0.701961 0 0 0 0 0.733333 0 0 0 0.5 0"/>
<feBlend mode="normal" in2="BackgroundImageFix" result="effect1_dropShadow"/>
<feColorMatrix in="SourceAlpha" type="matrix" values="0 0 0 0 0 0 0 0 0 0 0 0 0 0 0 0 0 0 127 0"/>
<feOffset dy="10"/>
<feGaussianBlur stdDeviation="6"/>
<feColorMatrix type="matrix" values="0 0 0 0 0 0 0 0 0 0 0 0 0 0 0 0 0 0 0.12 0"/>
<feBlend mode="normal" in2="effect1_dropShadow" result="effect2_dropShadow"/>
<feBlend mode="normal" in="SourceGraphic" in2="effect2_dropShadow" result="shape"/>
</filter>
</defs>
</svg>
