<svg width="281" height="60" viewBox="0 0 281 60" fill="none" xmlns="http://www.w3.org/2000/svg">
<rect x="132" y="35" width="12" height="12" rx="2" transform="rotate(-45 132 35)" fill="#2D3A41"/>
<g filter="url(#filter0_dd)">
<rect x="12" y="2" width="257" height="36" rx="4" fill="#2D3A41"/>
</g>
<rect x="132" y="35" width="12" height="12" rx="2" transform="rotate(-45 132 35)" fill="#2D3A41"/>
<path d="M28.802 17.454C29.474 17.454 29.9967 17.6547 30.37 18.056C30.7527 18.4573 30.944 19.008 30.944 19.708V25H29.656V19.89C29.656 19.3673 29.5533 18.9987 29.348 18.784C29.152 18.5693 28.8627 18.462 28.48 18.462C28.0973 18.462 27.7567 18.574 27.458 18.798C27.1593 19.022 26.8793 19.3393 26.618 19.75V25H25.33V14.668L26.618 14.528V18.644C27.1967 17.8507 27.9247 17.454 28.802 17.454ZM37.2571 24.664C36.7718 25 36.2211 25.168 35.6051 25.168C34.9798 25.168 34.4898 24.9907 34.1351 24.636C33.7898 24.272 33.6171 23.7493 33.6171 23.068V18.616H32.3291V17.622H33.6171V15.956L34.9051 15.802V17.622H36.6551L36.5151 18.616H34.9051V23.012C34.9051 23.3947 34.9705 23.6747 35.1011 23.852C35.2411 24.02 35.4698 24.104 35.7871 24.104C36.0765 24.104 36.4031 24.006 36.7671 23.81L37.2571 24.664ZM42.3157 24.664C41.8304 25 41.2797 25.168 40.6637 25.168C40.0384 25.168 39.5484 24.9907 39.1937 24.636C38.8484 24.272 38.6757 23.7493 38.6757 23.068V18.616H37.3877V17.622H38.6757V15.956L39.9637 15.802V17.622H41.7137L41.5737 18.616H39.9637V23.012C39.9637 23.3947 40.0291 23.6747 40.1597 23.852C40.2997 24.02 40.5284 24.104 40.8457 24.104C41.1351 24.104 41.4617 24.006 41.8257 23.81L42.3157 24.664ZM47.0383 17.454C47.981 17.454 48.6716 17.79 49.1103 18.462C49.549 19.134 49.7683 20.0813 49.7683 21.304C49.7683 22.4613 49.5163 23.3947 49.0123 24.104C48.5083 24.8133 47.7943 25.168 46.8703 25.168C46.049 25.168 45.405 24.888 44.9383 24.328V27.828L43.6503 27.982V17.622H44.7563L44.8543 18.616C45.125 18.2427 45.4516 17.958 45.8343 17.762C46.217 17.5567 46.6183 17.454 47.0383 17.454ZM46.5623 24.118C47.7756 24.118 48.3823 23.18 48.3823 21.304C48.3823 19.4187 47.827 18.476 46.7163 18.476C46.3523 18.476 46.021 18.5833 45.7223 18.798C45.4236 19.0127 45.1623 19.288 44.9383 19.624V23.222C45.125 23.5113 45.3583 23.7353 45.6383 23.894C45.9183 24.0433 46.2263 24.118 46.5623 24.118ZM53.9648 17.454C54.4688 17.454 54.9215 17.524 55.3228 17.664C55.7241 17.804 56.1068 18.014 56.4708 18.294L55.9248 19.106C55.5888 18.8913 55.2668 18.7327 54.9588 18.63C54.6601 18.5273 54.3428 18.476 54.0068 18.476C53.5868 18.476 53.2555 18.5647 53.0128 18.742C52.7701 18.91 52.6488 19.1433 52.6488 19.442C52.6488 19.7407 52.7608 19.974 52.9848 20.142C53.2181 20.31 53.6335 20.4733 54.2308 20.632C55.0521 20.8373 55.6635 21.1173 56.0648 21.472C56.4755 21.8267 56.6808 22.312 56.6808 22.928C56.6808 23.656 56.3961 24.2113 55.8268 24.594C55.2668 24.9767 54.5808 25.168 53.7688 25.168C52.6488 25.168 51.7201 24.846 50.9828 24.202L51.6688 23.418C52.2941 23.894 52.9848 24.132 53.7408 24.132C54.2261 24.132 54.6088 24.034 54.8888 23.838C55.1781 23.6327 55.3228 23.3573 55.3228 23.012C55.3228 22.76 55.2715 22.5593 55.1688 22.41C55.0661 22.2513 54.8888 22.116 54.6368 22.004C54.3848 21.8827 54.0161 21.7567 53.5308 21.626C52.7468 21.4207 52.1775 21.1453 51.8228 20.8C51.4775 20.4547 51.3048 20.016 51.3048 19.484C51.3048 19.1013 51.4168 18.756 51.6408 18.448C51.8741 18.1307 52.1915 17.888 52.5928 17.72C53.0035 17.5427 53.4608 17.454 53.9648 17.454ZM58.834 23.222C59.114 23.222 59.3473 23.3153 59.534 23.502C59.7206 23.6887 59.814 23.9173 59.814 24.188C59.814 24.4587 59.7206 24.692 59.534 24.888C59.3473 25.0747 59.114 25.168 58.834 25.168C58.5633 25.168 58.3346 25.0747 58.148 24.888C57.9613 24.692 57.868 24.4587 57.868 24.188C57.868 23.9173 57.9613 23.6887 58.148 23.502C58.3346 23.3153 58.5633 23.222 58.834 23.222ZM58.834 18.07C59.114 18.07 59.3473 18.1633 59.534 18.35C59.7206 18.5367 59.814 18.7653 59.814 19.036C59.814 19.3067 59.7206 19.54 59.534 19.736C59.3473 19.9227 59.114 20.016 58.834 20.016C58.5633 20.016 58.3346 19.9227 58.148 19.736C57.9613 19.54 57.868 19.3067 57.868 19.036C57.868 18.7653 57.9613 18.5367 58.148 18.35C58.3346 18.1633 58.5633 18.07 58.834 18.07ZM65.2493 13.702L66.3413 13.954L63.1073 26.456L62.0013 26.19L65.2493 13.702ZM70.841 13.702L71.933 13.954L68.699 26.456L67.593 26.19L70.841 13.702ZM79.7412 14.654V25H78.6072L78.4812 23.978C78.2386 24.3513 77.9352 24.6453 77.5712 24.86C77.2072 25.0653 76.8012 25.168 76.3532 25.168C75.4759 25.168 74.7899 24.8227 74.2952 24.132C73.8099 23.4413 73.5672 22.5127 73.5672 21.346C73.5672 20.59 73.6839 19.918 73.9172 19.33C74.1506 18.742 74.4866 18.2847 74.9252 17.958C75.3639 17.622 75.8772 17.454 76.4652 17.454C77.2212 17.454 77.8839 17.7573 78.4532 18.364V14.5L79.7412 14.654ZM76.6332 24.146C77.0252 24.146 77.3612 24.0573 77.6412 23.88C77.9212 23.6933 78.1919 23.418 78.4532 23.054V19.442C78.2106 19.1247 77.9492 18.8867 77.6692 18.728C77.3986 18.56 77.0906 18.476 76.7452 18.476C76.1759 18.476 75.7326 18.714 75.4152 19.19C75.1072 19.666 74.9532 20.3753 74.9532 21.318C74.9532 22.27 75.0979 22.9793 75.3872 23.446C75.6766 23.9127 76.0919 24.146 76.6332 24.146ZM87.9684 21.094C87.9684 21.3087 87.9591 21.528 87.9404 21.752H83.2364C83.2924 22.564 83.4977 23.1613 83.8524 23.544C84.2071 23.9267 84.6644 24.118 85.2244 24.118C85.5791 24.118 85.9057 24.0667 86.2044 23.964C86.5031 23.8613 86.8157 23.698 87.1424 23.474L87.7024 24.244C86.9184 24.86 86.0597 25.168 85.1264 25.168C84.0997 25.168 83.2971 24.832 82.7184 24.16C82.1491 23.488 81.8644 22.564 81.8644 21.388C81.8644 20.6227 81.9857 19.946 82.2284 19.358C82.4804 18.7607 82.8351 18.294 83.2924 17.958C83.7591 17.622 84.3051 17.454 84.9304 17.454C85.9104 17.454 86.6617 17.776 87.1844 18.42C87.7071 19.064 87.9684 19.9553 87.9684 21.094ZM86.6944 20.716C86.6944 19.988 86.5497 19.4327 86.2604 19.05C85.9711 18.6673 85.5371 18.476 84.9584 18.476C83.9037 18.476 83.3297 19.2507 83.2364 20.8H86.6944V20.716ZM92.0273 17.454C92.5313 17.454 92.984 17.524 93.3853 17.664C93.7866 17.804 94.1693 18.014 94.5333 18.294L93.9873 19.106C93.6513 18.8913 93.3293 18.7327 93.0213 18.63C92.7226 18.5273 92.4053 18.476 92.0693 18.476C91.6493 18.476 91.318 18.5647 91.0753 18.742C90.8326 18.91 90.7113 19.1433 90.7113 19.442C90.7113 19.7407 90.8233 19.974 91.0473 20.142C91.2806 20.31 91.696 20.4733 92.2933 20.632C93.1146 20.8373 93.726 21.1173 94.1273 21.472C94.538 21.8267 94.7433 22.312 94.7433 22.928C94.7433 23.656 94.4586 24.2113 93.8893 24.594C93.3293 24.9767 92.6433 25.168 91.8313 25.168C90.7113 25.168 89.7826 24.846 89.0453 24.202L89.7313 23.418C90.3566 23.894 91.0473 24.132 91.8033 24.132C92.2886 24.132 92.6713 24.034 92.9513 23.838C93.2406 23.6327 93.3853 23.3573 93.3853 23.012C93.3853 22.76 93.334 22.5593 93.2313 22.41C93.1286 22.2513 92.9513 22.116 92.6993 22.004C92.4473 21.8827 92.0786 21.7567 91.5933 21.626C90.8093 21.4207 90.24 21.1453 89.8853 20.8C89.54 20.4547 89.3673 20.016 89.3673 19.484C89.3673 19.1013 89.4793 18.756 89.7033 18.448C89.9366 18.1307 90.254 17.888 90.6553 17.72C91.066 17.5427 91.5233 17.454 92.0273 17.454ZM97.8485 17.622V25H96.5605V17.622H97.8485ZM97.1905 14.08C97.4611 14.08 97.6805 14.164 97.8485 14.332C98.0165 14.5 98.1005 14.71 98.1005 14.962C98.1005 15.214 98.0165 15.424 97.8485 15.592C97.6805 15.7507 97.4611 15.83 97.1905 15.83C96.9291 15.83 96.7145 15.7507 96.5465 15.592C96.3785 15.424 96.2945 15.214 96.2945 14.962C96.2945 14.71 96.3785 14.5 96.5465 14.332C96.7145 14.164 96.9291 14.08 97.1905 14.08ZM106.462 17.958C106.182 18.0513 105.874 18.112 105.538 18.14C105.202 18.168 104.791 18.182 104.306 18.182C105.174 18.574 105.608 19.1947 105.608 20.044C105.608 20.7813 105.356 21.3833 104.852 21.85C104.348 22.3167 103.662 22.55 102.794 22.55C102.458 22.55 102.145 22.5033 101.856 22.41C101.744 22.4847 101.655 22.5873 101.59 22.718C101.524 22.8393 101.492 22.9653 101.492 23.096C101.492 23.4973 101.814 23.698 102.458 23.698H103.634C104.128 23.698 104.567 23.7867 104.95 23.964C105.332 24.1413 105.626 24.384 105.832 24.692C106.046 25 106.154 25.35 106.154 25.742C106.154 26.4607 105.86 27.0113 105.272 27.394C104.684 27.786 103.825 27.982 102.696 27.982C101.902 27.982 101.272 27.898 100.806 27.73C100.348 27.5713 100.022 27.3287 99.8256 27.002C99.6296 26.6753 99.5316 26.2553 99.5316 25.742H100.694C100.694 26.0407 100.75 26.274 100.862 26.442C100.974 26.6193 101.174 26.75 101.464 26.834C101.753 26.9273 102.164 26.974 102.696 26.974C103.47 26.974 104.021 26.876 104.348 26.68C104.684 26.4933 104.852 26.2087 104.852 25.826C104.852 25.4807 104.721 25.2193 104.46 25.042C104.198 24.8647 103.834 24.776 103.368 24.776H102.206C101.58 24.776 101.104 24.6453 100.778 24.384C100.46 24.1133 100.302 23.7773 100.302 23.376C100.302 23.1333 100.372 22.9 100.512 22.676C100.652 22.452 100.852 22.2513 101.114 22.074C100.684 21.85 100.367 21.5747 100.162 21.248C99.9656 20.912 99.8676 20.506 99.8676 20.03C99.8676 19.5353 99.989 19.092 100.232 18.7C100.484 18.308 100.824 18.0047 101.254 17.79C101.692 17.566 102.178 17.454 102.71 17.454C103.288 17.4633 103.774 17.4447 104.166 17.398C104.558 17.342 104.88 17.272 105.132 17.188C105.393 17.0947 105.71 16.964 106.084 16.796L106.462 17.958ZM102.71 18.378C102.224 18.378 101.846 18.532 101.576 18.84C101.314 19.1387 101.184 19.5353 101.184 20.03C101.184 20.534 101.319 20.94 101.59 21.248C101.86 21.5467 102.243 21.696 102.738 21.696C103.242 21.696 103.624 21.5513 103.886 21.262C104.156 20.9633 104.292 20.548 104.292 20.016C104.292 18.924 103.764 18.378 102.71 18.378ZM111.257 17.454C111.929 17.454 112.452 17.6547 112.825 18.056C113.208 18.4573 113.399 19.008 113.399 19.708V25H112.111V19.89C112.111 19.3673 112.013 18.9987 111.817 18.784C111.621 18.5693 111.332 18.462 110.949 18.462C110.557 18.462 110.212 18.574 109.913 18.798C109.614 19.022 109.334 19.344 109.073 19.764V25H107.785V17.622H108.891L109.003 18.714C109.264 18.322 109.586 18.014 109.969 17.79C110.361 17.566 110.79 17.454 111.257 17.454ZM123.394 17.454C124.001 17.454 124.486 17.6593 124.85 18.07C125.214 18.4713 125.396 19.0173 125.396 19.708V25H124.108V19.89C124.108 18.938 123.763 18.462 123.072 18.462C122.708 18.462 122.4 18.5693 122.148 18.784C121.896 18.9893 121.626 19.316 121.336 19.764V25H120.048V19.89C120.048 18.938 119.703 18.462 119.012 18.462C118.639 18.462 118.326 18.5693 118.074 18.784C117.822 18.9987 117.556 19.3253 117.276 19.764V25H115.988V17.622H117.094L117.206 18.7C117.757 17.8693 118.466 17.454 119.334 17.454C119.792 17.454 120.179 17.5707 120.496 17.804C120.823 18.0373 121.056 18.364 121.196 18.784C121.486 18.3547 121.803 18.028 122.148 17.804C122.503 17.5707 122.918 17.454 123.394 17.454ZM130.764 17.454C131.8 17.454 132.603 17.7993 133.172 18.49C133.751 19.1807 134.04 20.1187 134.04 21.304C134.04 22.0693 133.909 22.746 133.648 23.334C133.387 23.9127 133.009 24.3653 132.514 24.692C132.019 25.0093 131.431 25.168 130.75 25.168C129.714 25.168 128.907 24.8227 128.328 24.132C127.749 23.4413 127.46 22.5033 127.46 21.318C127.46 20.5527 127.591 19.8807 127.852 19.302C128.113 18.714 128.491 18.2613 128.986 17.944C129.481 17.6173 130.073 17.454 130.764 17.454ZM130.764 18.49C129.485 18.49 128.846 19.4327 128.846 21.318C128.846 23.194 129.481 24.132 130.75 24.132C132.019 24.132 132.654 23.1893 132.654 21.304C132.654 19.428 132.024 18.49 130.764 18.49ZM141.88 14.654V25H140.746L140.62 23.978C140.377 24.3513 140.074 24.6453 139.71 24.86C139.346 25.0653 138.94 25.168 138.492 25.168C137.615 25.168 136.929 24.8227 136.434 24.132C135.949 23.4413 135.706 22.5127 135.706 21.346C135.706 20.59 135.823 19.918 136.056 19.33C136.289 18.742 136.625 18.2847 137.064 17.958C137.503 17.622 138.016 17.454 138.604 17.454C139.36 17.454 140.023 17.7573 140.592 18.364V14.5L141.88 14.654ZM138.772 24.146C139.164 24.146 139.5 24.0573 139.78 23.88C140.06 23.6933 140.331 23.418 140.592 23.054V19.442C140.349 19.1247 140.088 18.8867 139.808 18.728C139.537 18.56 139.229 18.476 138.884 18.476C138.315 18.476 137.871 18.714 137.554 19.19C137.246 19.666 137.092 20.3753 137.092 21.318C137.092 22.27 137.237 22.9793 137.526 23.446C137.815 23.9127 138.231 24.146 138.772 24.146ZM147.307 17.454C148.343 17.454 149.146 17.7993 149.715 18.49C150.294 19.1807 150.583 20.1187 150.583 21.304C150.583 22.0693 150.452 22.746 150.191 23.334C149.93 23.9127 149.552 24.3653 149.057 24.692C148.562 25.0093 147.974 25.168 147.293 25.168C146.257 25.168 145.45 24.8227 144.871 24.132C144.292 23.4413 144.003 22.5033 144.003 21.318C144.003 20.5527 144.134 19.8807 144.395 19.302C144.656 18.714 145.034 18.2613 145.529 17.944C146.024 17.6173 146.616 17.454 147.307 17.454ZM147.307 18.49C146.028 18.49 145.389 19.4327 145.389 21.318C145.389 23.194 146.024 24.132 147.293 24.132C148.562 24.132 149.197 23.1893 149.197 21.304C149.197 19.428 148.567 18.49 147.307 18.49ZM152.91 23.222C153.19 23.222 153.423 23.3153 153.61 23.502C153.797 23.6887 153.89 23.9173 153.89 24.188C153.89 24.4587 153.797 24.692 153.61 24.888C153.423 25.0747 153.19 25.168 152.91 25.168C152.639 25.168 152.411 25.0747 152.224 24.888C152.037 24.692 151.944 24.4587 151.944 24.188C151.944 23.9173 152.037 23.6887 152.224 23.502C152.411 23.3153 152.639 23.222 152.91 23.222ZM158.489 17.454C158.927 17.454 159.329 17.5193 159.693 17.65C160.057 17.7713 160.407 17.972 160.743 18.252L160.127 19.064C159.865 18.8773 159.609 18.742 159.357 18.658C159.114 18.5647 158.843 18.518 158.545 18.518C157.947 18.518 157.481 18.756 157.145 19.232C156.818 19.708 156.655 20.4127 156.655 21.346C156.655 22.2793 156.818 22.97 157.145 23.418C157.471 23.8567 157.938 24.076 158.545 24.076C158.834 24.076 159.1 24.034 159.343 23.95C159.585 23.8567 159.856 23.712 160.155 23.516L160.743 24.356C160.071 24.8973 159.319 25.168 158.489 25.168C157.49 25.168 156.701 24.832 156.123 24.16C155.553 23.488 155.269 22.5593 155.269 21.374C155.269 20.59 155.399 19.904 155.661 19.316C155.922 18.728 156.291 18.2707 156.767 17.944C157.252 17.6173 157.826 17.454 158.489 17.454ZM164.985 17.454C166.021 17.454 166.823 17.7993 167.393 18.49C167.971 19.1807 168.261 20.1187 168.261 21.304C168.261 22.0693 168.13 22.746 167.869 23.334C167.607 23.9127 167.229 24.3653 166.735 24.692C166.24 25.0093 165.652 25.168 164.971 25.168C163.935 25.168 163.127 24.8227 162.549 24.132C161.97 23.4413 161.681 22.5033 161.681 21.318C161.681 20.5527 161.811 19.8807 162.073 19.302C162.334 18.714 162.712 18.2613 163.207 17.944C163.701 17.6173 164.294 17.454 164.985 17.454ZM164.985 18.49C163.706 18.49 163.067 19.4327 163.067 21.318C163.067 23.194 163.701 24.132 164.971 24.132C166.24 24.132 166.875 23.1893 166.875 21.304C166.875 19.428 166.245 18.49 164.985 18.49ZM177.795 17.454C178.401 17.454 178.887 17.6593 179.251 18.07C179.615 18.4713 179.797 19.0173 179.797 19.708V25H178.509V19.89C178.509 18.938 178.163 18.462 177.473 18.462C177.109 18.462 176.801 18.5693 176.549 18.784C176.297 18.9893 176.026 19.316 175.737 19.764V25H174.449V19.89C174.449 18.938 174.103 18.462 173.413 18.462C173.039 18.462 172.727 18.5693 172.475 18.784C172.223 18.9987 171.957 19.3253 171.677 19.764V25H170.389V17.622H171.495L171.607 18.7C172.157 17.8693 172.867 17.454 173.735 17.454C174.192 17.454 174.579 17.5707 174.897 17.804C175.223 18.0373 175.457 18.364 175.597 18.784C175.886 18.3547 176.203 18.028 176.549 17.804C176.903 17.5707 177.319 17.454 177.795 17.454Z" fill="white"/>
<path d="M248 19L245 22L248 25" stroke="white" stroke-width="2" stroke-linecap="square" stroke-linejoin="round"/>
<path d="M246 23L255 23L255 21L246 21L246 23ZM257 21L257 14L255 14L255 21L257 21ZM255 23C256.105 23 257 22.1046 257 21L255 21L255 21L255 23Z" fill="white"/>
<path fill-rule="evenodd" clip-rule="evenodd" d="M252.033 41.4731C251.735 41.0969 251.373 40.3277 250.73 39.394C250.365 38.8658 249.46 37.8713 249.191 37.3662C248.957 36.9198 248.982 36.7196 249.038 36.3497C249.136 35.6916 249.811 35.1792 250.532 35.2483C251.076 35.2997 251.537 35.6591 251.952 35.9987C252.203 36.203 252.511 36.6002 252.696 36.8244C252.867 37.0298 252.909 37.1147 253.092 37.3578C253.333 37.6795 253.408 37.8388 253.316 37.4846C253.241 36.9649 253.12 36.0773 252.944 35.2924C252.81 34.6971 252.777 34.6039 252.649 34.147C252.514 33.6607 252.445 33.3201 252.318 32.8046C252.23 32.4399 252.072 31.6948 252.029 31.2756C251.969 30.7024 251.937 29.7676 252.305 29.338C252.594 29.0016 253.255 28.9 253.665 29.1074C254.202 29.3789 254.507 30.1585 254.646 30.4698C254.897 31.0294 255.052 31.6759 255.187 32.5248C255.359 33.6052 255.676 35.1048 255.686 35.4202C255.711 35.0335 255.615 34.2193 255.682 33.8483C255.743 33.5119 256.026 33.121 256.38 33.0152C256.68 32.9261 257.031 32.8936 257.341 32.9576C257.669 33.0246 258.015 33.2594 258.144 33.4805C258.523 34.1344 258.53 35.4705 258.546 35.3992C258.636 35.0052 258.621 34.1113 258.844 33.7393C258.991 33.4941 259.365 33.273 259.564 33.2374C259.872 33.1829 260.251 33.1661 260.575 33.229C260.836 33.2803 261.189 33.5905 261.284 33.7393C261.513 34.0998 261.643 35.1194 261.682 35.4768C261.697 35.6245 261.759 35.066 261.989 34.7055C262.414 34.0359 263.921 33.9059 263.979 35.3751C264.005 36.0605 264 36.0291 264 36.4901C264 37.0319 263.987 37.3578 263.958 37.7498C263.925 38.1689 263.835 39.1163 263.704 39.5753C263.614 39.8907 263.315 40.6001 263.02 41.0256C263.02 41.0256 261.895 42.3355 261.772 42.9255C261.648 43.5144 261.689 43.5186 261.665 43.9368C261.641 44.3538 261.792 44.903 261.792 44.903C261.792 44.903 260.951 45.0119 260.498 44.9396C260.088 44.8736 259.581 44.0583 259.45 43.8089C259.269 43.4652 258.885 43.5312 258.735 43.7848C258.499 44.1862 257.992 44.9061 257.633 44.9512C256.933 45.0392 255.48 44.9836 254.342 44.9721C254.342 44.9721 254.536 43.9127 254.104 43.549C253.785 43.2776 253.234 42.7274 252.905 42.4382L252.033 41.4731Z" fill="white"/>
<path fill-rule="evenodd" clip-rule="evenodd" d="M252.033 41.4731C251.735 41.0969 251.373 40.3277 250.73 39.394C250.365 38.8658 249.46 37.8713 249.191 37.3662C248.957 36.9198 248.982 36.7196 249.038 36.3497C249.136 35.6916 249.811 35.1792 250.532 35.2483C251.076 35.2997 251.537 35.6591 251.952 35.9987C252.203 36.203 252.511 36.6002 252.696 36.8244C252.867 37.0298 252.909 37.1147 253.092 37.3578C253.333 37.6795 253.408 37.8388 253.316 37.4846C253.241 36.9649 253.12 36.0773 252.944 35.2924C252.81 34.6971 252.777 34.6039 252.649 34.147C252.514 33.6607 252.445 33.3201 252.318 32.8046C252.23 32.4399 252.072 31.6948 252.029 31.2756C251.969 30.7024 251.937 29.7676 252.305 29.338C252.594 29.0016 253.255 28.9 253.665 29.1074C254.202 29.3789 254.507 30.1585 254.646 30.4698C254.897 31.0294 255.052 31.6759 255.187 32.5248C255.359 33.6052 255.676 35.1048 255.686 35.4202C255.711 35.0335 255.615 34.2193 255.682 33.8483C255.743 33.5119 256.026 33.121 256.38 33.0152C256.68 32.9261 257.031 32.8936 257.341 32.9576C257.669 33.0246 258.015 33.2594 258.144 33.4805C258.523 34.1344 258.53 35.4705 258.546 35.3992C258.636 35.0052 258.621 34.1113 258.844 33.7393C258.991 33.4941 259.365 33.273 259.564 33.2374C259.872 33.1829 260.251 33.1661 260.575 33.229C260.836 33.2803 261.189 33.5905 261.284 33.7393C261.513 34.0998 261.643 35.1194 261.682 35.4768C261.697 35.6245 261.759 35.066 261.989 34.7055C262.414 34.0359 263.921 33.9059 263.979 35.3751C264.005 36.0605 264 36.0291 264 36.4901C264 37.0319 263.987 37.3578 263.958 37.7498C263.925 38.1689 263.835 39.1163 263.704 39.5753C263.614 39.8907 263.315 40.6001 263.02 41.0256C263.02 41.0256 261.895 42.3355 261.772 42.9255C261.648 43.5144 261.689 43.5186 261.665 43.9368C261.641 44.3538 261.792 44.903 261.792 44.903C261.792 44.903 260.951 45.0119 260.498 44.9396C260.088 44.8736 259.581 44.0583 259.45 43.8089C259.269 43.4652 258.885 43.5312 258.735 43.7848C258.499 44.1862 257.992 44.9061 257.633 44.9512C256.933 45.0392 255.48 44.9836 254.342 44.9721C254.342 44.9721 254.536 43.9127 254.104 43.549C253.785 43.2776 253.234 42.7274 252.905 42.4382L252.033 41.4731Z" stroke="black" stroke-width="0.75" stroke-linecap="round" stroke-linejoin="round"/>
<path d="M260.666 41.8446V38.2198" stroke="black" stroke-width="0.75" stroke-linecap="round"/>
<path d="M258.553 41.8568L258.536 38.2173" stroke="black" stroke-width="0.75" stroke-linecap="round"/>
<path d="M256.46 38.2505L256.482 41.8407" stroke="black" stroke-width="0.75" stroke-linecap="round"/>
<defs>
<filter id="filter0_dd" x="0" y="0" width="281" height="60" filterUnits="userSpaceOnUse" color-interpolation-filters="sRGB">
<feFlood flood-opacity="0" result="BackgroundImageFix"/>
<feColorMatrix in="SourceAlpha" type="matrix" values="0 0 0 0 0 0 0 0 0 0 0 0 0 0 0 0 0 0 127 0"/>
<feOffset/>
<feGaussianBlur stdDeviation="1"/>
<feColorMatrix type="matrix" values="0 0 0 0 0.662745 0 0 0 0 0.701961 0 0 0 0 0.733333 0 0 0 0.5 0"/>
<feBlend mode="normal" in2="BackgroundImageFix" result="effect1_dropShadow"/>
<feColorMatrix in="SourceAlpha" type="matrix" values="0 0 0 0 0 0 0 0 0 0 0 0 0 0 0 0 0 0 127 0"/>
<feOffset dy="10"/>
<feGaussianBlur stdDeviation="6"/>
<feColorMatrix type="matrix" values="0 0 0 0 0 0 0 0 0 0 0 0 0 0 0 0 0 0 0.12 0"/>
<feBlend mode="normal" in2="effect1_dropShadow" result="effect2_dropShadow"/>
<feBlend mode="normal" in="SourceGraphic" in2="effect2_dropShadow" result="shape"/>
</filter>
</defs>
</svg>
